<mxfile host="app.diagrams.net" modified="2022-06-16T15:54:42.170Z" agent="5.0 (Windows NT 10.0; Win64; x64) AppleWebKit/537.36 (KHTML, like Gecko) Chrome/84.0.4147.105 Safari/537.36" etag="2zFMASaEIIJM_obT-BfD" version="20.0.1" type="github">
  <diagram id="vGKVlqNKv7uY1KQW3NVf" name="Page-1">
    <mxGraphModel dx="1640" dy="431" grid="1" gridSize="10" guides="1" tooltips="1" connect="1" arrows="1" fold="1" page="1" pageScale="1" pageWidth="827" pageHeight="1169" math="0" shadow="0">
      <root>
        <mxCell id="0" />
        <mxCell id="1" parent="0" />
        <mxCell id="GIa0KxDs6VvTqCMs2XQG-28" style="rounded=0;jumpSize=6;orthogonalLoop=1;jettySize=auto;html=1;exitX=0;exitY=1;exitDx=0;exitDy=0;entryX=0.703;entryY=0.058;entryDx=0;entryDy=0;entryPerimeter=0;fontFamily=Times New Roman;fontSize=12;startArrow=none;startFill=0;endArrow=block;endFill=0;strokeColor=#000000;" parent="1" source="GIa0KxDs6VvTqCMs2XQG-1" target="GIa0KxDs6VvTqCMs2XQG-2" edge="1">
          <mxGeometry relative="1" as="geometry" />
        </mxCell>
        <mxCell id="GIa0KxDs6VvTqCMs2XQG-32" style="edgeStyle=none;rounded=0;jumpSize=6;orthogonalLoop=1;jettySize=auto;html=1;exitX=1;exitY=1;exitDx=0;exitDy=0;entryX=0;entryY=0;entryDx=0;entryDy=0;fontFamily=Times New Roman;fontSize=12;startArrow=none;startFill=0;endArrow=block;endFill=0;strokeColor=#000000;" parent="1" source="GIa0KxDs6VvTqCMs2XQG-1" target="GIa0KxDs6VvTqCMs2XQG-3" edge="1">
          <mxGeometry relative="1" as="geometry" />
        </mxCell>
        <mxCell id="GIa0KxDs6VvTqCMs2XQG-1" value="" style="ellipse;whiteSpace=wrap;html=1;shadow=0;sketch=0;fontFamily=Times New Roman;fontSize=12;strokeWidth=1;" parent="1" vertex="1">
          <mxGeometry x="200" y="40" width="40" height="40" as="geometry" />
        </mxCell>
        <mxCell id="GIa0KxDs6VvTqCMs2XQG-33" style="edgeStyle=none;rounded=0;jumpSize=6;orthogonalLoop=1;jettySize=auto;html=1;exitX=0;exitY=1;exitDx=0;exitDy=0;entryX=1;entryY=0;entryDx=0;entryDy=0;fontFamily=Times New Roman;fontSize=12;startArrow=none;startFill=0;endArrow=block;endFill=0;strokeColor=#000000;" parent="1" source="GIa0KxDs6VvTqCMs2XQG-2" target="GIa0KxDs6VvTqCMs2XQG-4" edge="1">
          <mxGeometry relative="1" as="geometry" />
        </mxCell>
        <mxCell id="GIa0KxDs6VvTqCMs2XQG-34" style="edgeStyle=none;rounded=0;jumpSize=6;orthogonalLoop=1;jettySize=auto;html=1;exitX=1;exitY=1;exitDx=0;exitDy=0;entryX=0;entryY=0;entryDx=0;entryDy=0;fontFamily=Times New Roman;fontSize=12;startArrow=none;startFill=0;endArrow=block;endFill=0;strokeColor=#000000;" parent="1" source="GIa0KxDs6VvTqCMs2XQG-2" target="GIa0KxDs6VvTqCMs2XQG-5" edge="1">
          <mxGeometry relative="1" as="geometry" />
        </mxCell>
        <mxCell id="GIa0KxDs6VvTqCMs2XQG-2" value="" style="ellipse;whiteSpace=wrap;html=1;shadow=0;sketch=0;fontFamily=Times New Roman;fontSize=12;strokeWidth=1;" parent="1" vertex="1">
          <mxGeometry x="137" y="107" width="40" height="40" as="geometry" />
        </mxCell>
        <mxCell id="GIa0KxDs6VvTqCMs2XQG-35" style="edgeStyle=none;rounded=0;jumpSize=6;orthogonalLoop=1;jettySize=auto;html=1;exitX=1;exitY=1;exitDx=0;exitDy=0;entryX=0;entryY=0;entryDx=0;entryDy=0;fontFamily=Times New Roman;fontSize=12;startArrow=none;startFill=0;endArrow=block;endFill=0;strokeColor=#000000;" parent="1" source="GIa0KxDs6VvTqCMs2XQG-3" target="GIa0KxDs6VvTqCMs2XQG-6" edge="1">
          <mxGeometry relative="1" as="geometry" />
        </mxCell>
        <mxCell id="GIa0KxDs6VvTqCMs2XQG-87" style="rounded=0;jumpSize=6;orthogonalLoop=1;jettySize=auto;html=1;exitX=0;exitY=1;exitDx=0;exitDy=0;entryX=1;entryY=0;entryDx=0;entryDy=0;fontFamily=Times New Roman;fontSize=12;startArrow=none;startFill=0;endArrow=block;endFill=0;strokeColor=#000000;" parent="1" source="GIa0KxDs6VvTqCMs2XQG-3" target="GIa0KxDs6VvTqCMs2XQG-85" edge="1">
          <mxGeometry relative="1" as="geometry" />
        </mxCell>
        <mxCell id="GIa0KxDs6VvTqCMs2XQG-3" value="" style="ellipse;whiteSpace=wrap;html=1;shadow=0;sketch=0;fontFamily=Times New Roman;fontSize=12;strokeWidth=1;" parent="1" vertex="1">
          <mxGeometry x="263" y="107" width="40" height="40" as="geometry" />
        </mxCell>
        <mxCell id="GIa0KxDs6VvTqCMs2XQG-4" value="" style="ellipse;whiteSpace=wrap;html=1;shadow=0;sketch=0;fontFamily=Times New Roman;fontSize=12;strokeWidth=1;" parent="1" vertex="1">
          <mxGeometry x="97" y="171" width="40" height="40" as="geometry" />
        </mxCell>
        <mxCell id="GIa0KxDs6VvTqCMs2XQG-5" value="" style="ellipse;whiteSpace=wrap;html=1;shadow=0;sketch=0;fontFamily=Times New Roman;fontSize=12;strokeWidth=1;" parent="1" vertex="1">
          <mxGeometry x="179" y="170" width="40" height="40" as="geometry" />
        </mxCell>
        <mxCell id="GIa0KxDs6VvTqCMs2XQG-6" value="" style="ellipse;whiteSpace=wrap;html=1;shadow=0;sketch=0;fontFamily=Times New Roman;fontSize=12;strokeWidth=1;" parent="1" vertex="1">
          <mxGeometry x="303" y="170" width="40" height="40" as="geometry" />
        </mxCell>
        <mxCell id="GIa0KxDs6VvTqCMs2XQG-7" value="" style="endArrow=none;html=1;rounded=0;fontFamily=Times New Roman;fontSize=12;strokeColor=#0000FF;" parent="1" edge="1">
          <mxGeometry width="50" height="50" relative="1" as="geometry">
            <mxPoint x="205" y="54.97" as="sourcePoint" />
            <mxPoint x="235" y="54.97" as="targetPoint" />
          </mxGeometry>
        </mxCell>
        <mxCell id="GIa0KxDs6VvTqCMs2XQG-9" value="" style="endArrow=none;html=1;rounded=0;fontFamily=Times New Roman;fontSize=12;strokeColor=#CC0000;" parent="1" edge="1">
          <mxGeometry width="50" height="50" relative="1" as="geometry">
            <mxPoint x="205" y="64.78" as="sourcePoint" />
            <mxPoint x="235" y="64.78" as="targetPoint" />
          </mxGeometry>
        </mxCell>
        <mxCell id="GIa0KxDs6VvTqCMs2XQG-10" value="" style="endArrow=none;html=1;rounded=0;fontFamily=Times New Roman;fontSize=12;strokeColor=#0000FF;" parent="1" edge="1">
          <mxGeometry width="50" height="50" relative="1" as="geometry">
            <mxPoint x="142" y="121.83000000000003" as="sourcePoint" />
            <mxPoint x="172" y="121.83000000000003" as="targetPoint" />
          </mxGeometry>
        </mxCell>
        <mxCell id="GIa0KxDs6VvTqCMs2XQG-11" value="" style="endArrow=none;html=1;rounded=0;fontFamily=Times New Roman;fontSize=12;strokeColor=#CC0000;jumpSize=6;" parent="1" edge="1">
          <mxGeometry width="50" height="50" relative="1" as="geometry">
            <mxPoint x="142" y="131.64" as="sourcePoint" />
            <mxPoint x="162" y="131.64" as="targetPoint" />
          </mxGeometry>
        </mxCell>
        <mxCell id="GIa0KxDs6VvTqCMs2XQG-14" value="" style="endArrow=none;html=1;rounded=0;fontFamily=Times New Roman;fontSize=12;strokeColor=#0000FF;" parent="1" edge="1">
          <mxGeometry width="50" height="50" relative="1" as="geometry">
            <mxPoint x="103" y="190.74000000000004" as="sourcePoint" />
            <mxPoint x="133" y="190.74000000000004" as="targetPoint" />
          </mxGeometry>
        </mxCell>
        <mxCell id="GIa0KxDs6VvTqCMs2XQG-16" value="" style="endArrow=none;html=1;rounded=0;fontFamily=Times New Roman;fontSize=12;strokeColor=#0000FF;" parent="1" edge="1">
          <mxGeometry width="50" height="50" relative="1" as="geometry">
            <mxPoint x="193" y="185" as="sourcePoint" />
            <mxPoint x="206" y="185" as="targetPoint" />
          </mxGeometry>
        </mxCell>
        <mxCell id="GIa0KxDs6VvTqCMs2XQG-21" value="" style="endArrow=none;html=1;rounded=0;fontFamily=Times New Roman;fontSize=12;strokeColor=#CC0000;" parent="1" edge="1">
          <mxGeometry width="50" height="50" relative="1" as="geometry">
            <mxPoint x="308" y="190.64" as="sourcePoint" />
            <mxPoint x="338" y="190.64" as="targetPoint" />
          </mxGeometry>
        </mxCell>
        <mxCell id="GIa0KxDs6VvTqCMs2XQG-23" value="" style="endArrow=none;html=1;rounded=0;fontFamily=Times New Roman;fontSize=12;strokeColor=#000000;jumpSize=6;dashed=1;" parent="1" edge="1">
          <mxGeometry width="50" height="50" relative="1" as="geometry">
            <mxPoint x="162" y="132" as="sourcePoint" />
            <mxPoint x="172" y="135" as="targetPoint" />
          </mxGeometry>
        </mxCell>
        <mxCell id="GIa0KxDs6VvTqCMs2XQG-24" value="" style="endArrow=none;html=1;rounded=0;fontFamily=Times New Roman;fontSize=12;strokeColor=#CC0000;jumpSize=6;" parent="1" edge="1">
          <mxGeometry width="50" height="50" relative="1" as="geometry">
            <mxPoint x="186" y="195" as="sourcePoint" />
            <mxPoint x="206" y="195" as="targetPoint" />
          </mxGeometry>
        </mxCell>
        <mxCell id="GIa0KxDs6VvTqCMs2XQG-25" value="" style="endArrow=none;html=1;rounded=0;fontFamily=Times New Roman;fontSize=12;strokeColor=#000000;jumpSize=6;dashed=1;" parent="1" edge="1">
          <mxGeometry width="50" height="50" relative="1" as="geometry">
            <mxPoint x="206" y="195.36" as="sourcePoint" />
            <mxPoint x="216" y="198.36" as="targetPoint" />
          </mxGeometry>
        </mxCell>
        <mxCell id="GIa0KxDs6VvTqCMs2XQG-26" value="" style="endArrow=none;html=1;rounded=0;fontFamily=Times New Roman;fontSize=12;strokeColor=#000000;jumpSize=6;dashed=1;" parent="1" edge="1">
          <mxGeometry width="50" height="50" relative="1" as="geometry">
            <mxPoint x="206" y="185.36" as="sourcePoint" />
            <mxPoint x="216" y="188.36" as="targetPoint" />
          </mxGeometry>
        </mxCell>
        <mxCell id="GIa0KxDs6VvTqCMs2XQG-27" value="" style="endArrow=none;html=1;rounded=0;fontFamily=Times New Roman;fontSize=12;strokeColor=#666666;jumpSize=6;dashed=1;" parent="1" edge="1">
          <mxGeometry width="50" height="50" relative="1" as="geometry">
            <mxPoint x="184" y="182.36" as="sourcePoint" />
            <mxPoint x="194" y="185.36" as="targetPoint" />
          </mxGeometry>
        </mxCell>
        <mxCell id="GIa0KxDs6VvTqCMs2XQG-36" value="" style="rounded=0;whiteSpace=wrap;html=1;shadow=0;sketch=0;fontFamily=Times New Roman;fontSize=12;strokeWidth=2;fillColor=none;dashed=1;strokeColor=#A9C4EB;" parent="1" vertex="1">
          <mxGeometry x="72" y="166" width="310" height="50" as="geometry" />
        </mxCell>
        <mxCell id="GIa0KxDs6VvTqCMs2XQG-94" style="edgeStyle=orthogonalEdgeStyle;curved=1;rounded=0;jumpSize=6;orthogonalLoop=1;jettySize=auto;html=1;exitX=0.998;exitY=0.698;exitDx=0;exitDy=0;entryX=1;entryY=0.25;entryDx=0;entryDy=0;fontFamily=Times New Roman;fontSize=12;startArrow=none;startFill=0;endArrow=classic;endFill=1;strokeColor=#000000;exitPerimeter=0;" parent="1" source="GIa0KxDs6VvTqCMs2XQG-37" target="GIa0KxDs6VvTqCMs2XQG-83" edge="1">
          <mxGeometry relative="1" as="geometry">
            <Array as="points">
              <mxPoint x="410" y="136" />
              <mxPoint x="410" y="192" />
            </Array>
          </mxGeometry>
        </mxCell>
        <mxCell id="GIa0KxDs6VvTqCMs2XQG-37" value="" style="rounded=0;whiteSpace=wrap;html=1;shadow=0;sketch=0;fontFamily=Times New Roman;fontSize=12;strokeWidth=2;fillColor=none;dashed=1;strokeColor=#A9C4EB;" parent="1" vertex="1">
          <mxGeometry x="70" y="101" width="310" height="50" as="geometry" />
        </mxCell>
        <mxCell id="GIa0KxDs6VvTqCMs2XQG-38" value="" style="rounded=0;whiteSpace=wrap;html=1;shadow=0;sketch=0;fontFamily=Times New Roman;fontSize=12;strokeWidth=2;fillColor=none;dashed=1;strokeColor=#A9C4EB;" parent="1" vertex="1">
          <mxGeometry x="70" y="34" width="310" height="50" as="geometry" />
        </mxCell>
        <mxCell id="GIa0KxDs6VvTqCMs2XQG-69" value="&lt;font style=&quot;font-size: 18px;&quot;&gt;1st layer&lt;br&gt;t=0&lt;/font&gt;" style="text;html=1;strokeColor=none;fillColor=none;align=center;verticalAlign=middle;whiteSpace=wrap;rounded=0;shadow=0;dashed=1;sketch=0;fontFamily=Times New Roman;fontSize=12;" parent="1" vertex="1">
          <mxGeometry x="-10" y="44" width="74" height="30" as="geometry" />
        </mxCell>
        <mxCell id="GIa0KxDs6VvTqCMs2XQG-70" value="&lt;font style=&quot;font-size: 18px;&quot;&gt;2nd layer&lt;br&gt;t=1&lt;/font&gt;" style="text;html=1;strokeColor=none;fillColor=none;align=center;verticalAlign=middle;whiteSpace=wrap;rounded=0;shadow=0;dashed=1;sketch=0;fontFamily=Times New Roman;fontSize=12;" parent="1" vertex="1">
          <mxGeometry x="-10" y="107" width="74" height="30" as="geometry" />
        </mxCell>
        <mxCell id="GIa0KxDs6VvTqCMs2XQG-71" value="&lt;font style=&quot;font-size: 18px;&quot;&gt;3rd layer&lt;br&gt;t=2&lt;/font&gt;" style="text;html=1;strokeColor=none;fillColor=none;align=center;verticalAlign=middle;whiteSpace=wrap;rounded=0;shadow=0;dashed=1;sketch=0;fontFamily=Times New Roman;fontSize=12;" parent="1" vertex="1">
          <mxGeometry x="-10" y="174" width="74" height="30" as="geometry" />
        </mxCell>
        <mxCell id="GIa0KxDs6VvTqCMs2XQG-78" value="&lt;font style=&quot;font-size: 12px;&quot;&gt;A&lt;/font&gt;" style="text;html=1;strokeColor=none;fillColor=none;align=center;verticalAlign=middle;whiteSpace=wrap;rounded=0;shadow=0;dashed=1;sketch=0;fontFamily=Times New Roman;fontSize=15;" parent="1" vertex="1">
          <mxGeometry x="220" y="48" width="60" height="30" as="geometry" />
        </mxCell>
        <mxCell id="GIa0KxDs6VvTqCMs2XQG-79" value="&lt;font style=&quot;font-size: 12px;&quot;&gt;B&lt;/font&gt;" style="text;html=1;strokeColor=none;fillColor=none;align=center;verticalAlign=middle;whiteSpace=wrap;rounded=0;shadow=0;dashed=1;sketch=0;fontFamily=Times New Roman;fontSize=15;" parent="1" vertex="1">
          <mxGeometry x="160" y="117" width="60" height="30" as="geometry" />
        </mxCell>
        <mxCell id="GIa0KxDs6VvTqCMs2XQG-80" value="&lt;font style=&quot;font-size: 12px;&quot;&gt;C&lt;/font&gt;" style="text;html=1;strokeColor=none;fillColor=none;align=center;verticalAlign=middle;whiteSpace=wrap;rounded=0;shadow=0;dashed=1;sketch=0;fontFamily=Times New Roman;fontSize=15;" parent="1" vertex="1">
          <mxGeometry x="283" y="117" width="60" height="30" as="geometry" />
        </mxCell>
        <mxCell id="GIa0KxDs6VvTqCMs2XQG-81" value="&lt;font style=&quot;font-size: 12px;&quot;&gt;D&lt;/font&gt;" style="text;html=1;strokeColor=none;fillColor=none;align=center;verticalAlign=middle;whiteSpace=wrap;rounded=0;shadow=0;dashed=1;sketch=0;fontFamily=Times New Roman;fontSize=15;" parent="1" vertex="1">
          <mxGeometry x="114" y="185" width="60" height="30" as="geometry" />
        </mxCell>
        <mxCell id="GIa0KxDs6VvTqCMs2XQG-82" value="&lt;font style=&quot;font-size: 12px;&quot;&gt;E&lt;/font&gt;" style="text;html=1;strokeColor=none;fillColor=none;align=center;verticalAlign=middle;whiteSpace=wrap;rounded=0;shadow=0;dashed=1;sketch=0;fontFamily=Times New Roman;fontSize=15;" parent="1" vertex="1">
          <mxGeometry x="145" y="185" width="60" height="30" as="geometry" />
        </mxCell>
        <mxCell id="GIa0KxDs6VvTqCMs2XQG-83" value="&lt;font style=&quot;font-size: 12px;&quot;&gt;G&lt;/font&gt;" style="text;html=1;strokeColor=none;fillColor=none;align=center;verticalAlign=middle;whiteSpace=wrap;rounded=0;shadow=0;dashed=1;sketch=0;fontFamily=Times New Roman;fontSize=15;" parent="1" vertex="1">
          <mxGeometry x="323" y="184" width="60" height="30" as="geometry" />
        </mxCell>
        <mxCell id="GIa0KxDs6VvTqCMs2XQG-85" value="" style="ellipse;whiteSpace=wrap;html=1;shadow=0;sketch=0;fontFamily=Times New Roman;fontSize=12;strokeWidth=1;" parent="1" vertex="1">
          <mxGeometry x="224" y="170" width="40" height="40" as="geometry" />
        </mxCell>
        <mxCell id="GIa0KxDs6VvTqCMs2XQG-88" value="&lt;font style=&quot;font-size: 12px;&quot;&gt;F&lt;/font&gt;" style="text;html=1;strokeColor=none;fillColor=none;align=center;verticalAlign=middle;whiteSpace=wrap;rounded=0;shadow=0;dashed=1;sketch=0;fontFamily=Times New Roman;fontSize=15;" parent="1" vertex="1">
          <mxGeometry x="243" y="184" width="60" height="30" as="geometry" />
        </mxCell>
        <mxCell id="ZZ_72xUy3hiHlqT8qbyo-6" value="" style="endArrow=none;html=1;rounded=0;fontFamily=Times New Roman;fontSize=12;strokeColor=#CC0000;" edge="1" parent="1">
          <mxGeometry width="50" height="50" relative="1" as="geometry">
            <mxPoint x="268" y="131.57999999999998" as="sourcePoint" />
            <mxPoint x="298" y="131.57999999999998" as="targetPoint" />
          </mxGeometry>
        </mxCell>
        <mxCell id="ZZ_72xUy3hiHlqT8qbyo-7" value="" style="endArrow=none;html=1;rounded=0;fontFamily=Times New Roman;fontSize=12;strokeColor=#0000FF;" edge="1" parent="1">
          <mxGeometry width="50" height="50" relative="1" as="geometry">
            <mxPoint x="277" y="122.57999999999998" as="sourcePoint" />
            <mxPoint x="298" y="122.57999999999998" as="targetPoint" />
          </mxGeometry>
        </mxCell>
        <mxCell id="ZZ_72xUy3hiHlqT8qbyo-8" value="" style="endArrow=none;html=1;rounded=0;fontFamily=Times New Roman;fontSize=12;strokeColor=#666666;jumpSize=6;dashed=1;" edge="1" parent="1">
          <mxGeometry width="50" height="50" relative="1" as="geometry">
            <mxPoint x="268" y="119.94" as="sourcePoint" />
            <mxPoint x="278" y="122.94" as="targetPoint" />
          </mxGeometry>
        </mxCell>
        <mxCell id="ZZ_72xUy3hiHlqT8qbyo-9" style="edgeStyle=orthogonalEdgeStyle;curved=1;rounded=0;jumpSize=6;orthogonalLoop=1;jettySize=auto;html=1;entryX=1;entryY=0.25;entryDx=0;entryDy=0;fontFamily=Times New Roman;fontSize=12;startArrow=none;startFill=0;endArrow=classic;endFill=1;strokeColor=#000000;" edge="1" parent="1">
          <mxGeometry relative="1" as="geometry">
            <Array as="points">
              <mxPoint x="409" y="59.480000000000004" />
              <mxPoint x="409" y="117.48" />
            </Array>
            <mxPoint x="380" y="59" as="sourcePoint" />
            <mxPoint x="382" y="116.98" as="targetPoint" />
          </mxGeometry>
        </mxCell>
        <mxCell id="ZZ_72xUy3hiHlqT8qbyo-20" value="" style="endArrow=none;html=1;rounded=0;fontFamily=Times New Roman;fontSize=12;strokeColor=#0000FF;" edge="1" parent="1">
          <mxGeometry width="50" height="50" relative="1" as="geometry">
            <mxPoint x="239" y="190.64" as="sourcePoint" />
            <mxPoint x="260" y="190.64" as="targetPoint" />
          </mxGeometry>
        </mxCell>
        <mxCell id="ZZ_72xUy3hiHlqT8qbyo-21" value="" style="endArrow=none;html=1;rounded=0;fontFamily=Times New Roman;fontSize=12;strokeColor=#666666;jumpSize=6;dashed=1;" edge="1" parent="1">
          <mxGeometry width="50" height="50" relative="1" as="geometry">
            <mxPoint x="230" y="188" as="sourcePoint" />
            <mxPoint x="240" y="191" as="targetPoint" />
          </mxGeometry>
        </mxCell>
      </root>
    </mxGraphModel>
  </diagram>
</mxfile>
